<svg xmlns="http://www.w3.org/2000/svg" viewBox="0 0 900 474" role="img" aria-label="claim residuals in sigma, frozen edition"><style>text{fill:#dae7ef;font:13px monospace}</style><text x="400" y="24">0</text><rect x="400" y="40" width="1" height="404" fill="#888"/><text x="0" y="72">lambda_tree</text><rect x="399.75762341948604" y="60" width="0.24237658051394206" height="14" fill="#63ddbe"/><text x="710" y="72">-0.00σ · rel 4.29e-06</text><text x="0" y="106">mH_over_v</text><rect x="395" y="100" width="10" height="2" fill="#577"/><text x="710" y="106">σ_rel 0.000885 · no claim on file</text><text x="0" y="140">mW_over_mZ</text><rect x="395" y="134" width="10" height="2" fill="#577"/><text x="710" y="140">σ_rel 0.000152 · no claim on file</text><text x="0" y="174">mH_over_mZ</text><rect x="395" y="168" width="10" height="2" fill="#577"/><text x="710" y="174">σ_rel 0.000886 · no claim on file</text><text x="0" y="208">mH_over_mt</text><rect x="358.2163802222409" y="196" width="41.783619777759085" height="14" fill="#63ddbe"/><text x="710" y="208">-0.42σ · rel 0.000805</text><text x="0" y="242">mH_over_mt_pole</text><rect x="395" y="236" width="10" height="2" fill="#577"/><text x="710" y="242">σ_rel 0.00412 · no claim on file</text><text x="0" y="276">yt_tree</text><rect x="395" y="270" width="10" height="2" fill="#577"/><text x="710" y="276">σ_rel 0.00173 · no claim on file</text><text x="0" y="310">sin2w_msbar</text><rect x="350.9117947855262" y="298" width="49.08820521447381" height="14" fill="#63ddbe"/><text x="710" y="310">-0.49σ · rel 8.49e-05</text><text x="0" y="344">sin2w_onshell</text><rect x="395" y="338" width="10" height="2" fill="#577"/><text x="710" y="344">σ_rel 0.00106 · no claim on file</text><text x="0" y="378">alphainv0</text><rect x="395" y="372" width="10" height="2" fill="#577"/><text x="710" y="378">σ_rel 1.54e-10 · no claim on file</text><text x="0" y="412">alphas_mz</text><rect x="395" y="406" width="10" height="2" fill="#577"/><text x="710" y="412">σ_rel 0.00766 · no claim on file</text><text x="0" y="464">bars: (measured-claim)/sigma_target, frozen edition; xmax=3.0σ</text></svg>