<svg xmlns="http://www.w3.org/2000/svg" viewBox="0 0 780 495" role="img" aria-label="Chance coverage at experimental precision"><style>text{fill:#dae7ef;font:13px monospace}</style><text x="130" y="18">0% — log-uniform target coverage — 100%</text><text x="0" y="47">phi B=3</text><rect x="130" y="35" width="175.94077419383112" height="16" fill="#63ddbe"/><text x="690" y="47">32.6%</text><text x="0" y="74">phi B=5</text><rect x="130" y="62" width="356.3483609226718" height="16" fill="#63ddbe"/><text x="690" y="74">66.0%</text><text x="0" y="101">phi B=8</text><rect x="130" y="89" width="464.406864556337" height="16" fill="#63ddbe"/><text x="690" y="101">86.0%</text><text x="0" y="128">phi B=12</text><rect x="130" y="116" width="528.3252203280979" height="16" fill="#63ddbe"/><text x="690" y="128">97.8%</text><text x="0" y="155">sqrt3 B=3</text><rect x="130" y="143" width="144.8775338918898" height="16" fill="#63ddbe"/><text x="690" y="155">26.8%</text><text x="0" y="182">sqrt3 B=5</text><rect x="130" y="170" width="244.6630908165169" height="16" fill="#63ddbe"/><text x="690" y="182">45.3%</text><text x="0" y="209">sqrt3 B=8</text><rect x="130" y="197" width="326.67822523235725" height="16" fill="#63ddbe"/><text x="690" y="209">60.5%</text><text x="0" y="236">sqrt3 B=12</text><rect x="130" y="224" width="364.1157187505324" height="16" fill="#63ddbe"/><text x="690" y="236">67.4%</text><text x="0" y="263">e B=3</text><rect x="130" y="251" width="207.84561309461904" height="16" fill="#63ddbe"/><text x="690" y="263">38.5%</text><text x="0" y="290">e B=5</text><rect x="130" y="278" width="402.42211300443165" height="16" fill="#63ddbe"/><text x="690" y="290">74.5%</text><text x="0" y="317">e B=8</text><rect x="130" y="305" width="506.62023588181836" height="16" fill="#63ddbe"/><text x="690" y="317">93.8%</text><text x="0" y="344">e B=12</text><rect x="130" y="332" width="538.9742646770922" height="16" fill="#63ddbe"/><text x="690" y="344">99.8%</text><text x="0" y="371">pi B=3</text><rect x="130" y="359" width="175.02381760491295" height="16" fill="#63ddbe"/><text x="690" y="371">32.4%</text><text x="0" y="398">pi B=5</text><rect x="130" y="386" width="365.43035135210624" height="16" fill="#63ddbe"/><text x="690" y="398">67.7%</text><text x="0" y="425">pi B=8</text><rect x="130" y="413" width="512.7496972306136" height="16" fill="#63ddbe"/><text x="690" y="425">95.0%</text><text x="0" y="452">pi B=12</text><rect x="130" y="440" width="538.8882026814426" height="16" fill="#63ddbe"/><text x="690" y="452">99.8%</text></svg>